<?xml version="1.0" encoding="UTF-8"?>
<!DOCTYPE svg PUBLIC "-//W3C//DTD SVG 1.1//EN" "http://www.w3.org/Graphics/SVG/1.1/DTD/svg11.dtd">
<svg xmlns="http://www.w3.org/2000/svg" version="1.1" width="1024px" height="1024px" style="shape-rendering:geometricPrecision; text-rendering:geometricPrecision; image-rendering:optimizeQuality; fill-rule:evenodd; clip-rule:evenodd" xmlns:xlink="http://www.w3.org/1999/xlink">
<g><path style="opacity:1" fill="#1fd2e8" d="M 541.5,178.5 C 540.683,180.969 540.183,183.635 540,186.5C 539.667,186.167 539.333,185.833 539,185.5C 538.751,186.624 538.251,187.624 537.5,188.5C 535.434,184.425 532.101,182.758 527.5,183.5C 527.5,184.833 527.5,186.167 527.5,187.5C 523.76,187.759 520.094,187.426 516.5,186.5C 514.997,187.59 514.664,188.757 515.5,190C 513.484,191.934 511.484,192.267 509.5,191C 510.328,190.085 511.328,189.419 512.5,189C 510.863,187.049 509.363,187.216 508,189.5C 505.544,187.679 502.711,187.012 499.5,187.5C 499.5,186.167 499.5,184.833 499.5,183.5C 497.833,183.5 496.167,183.5 494.5,183.5C 493.947,179.544 493.114,179.544 492,183.5C 491.667,183.167 491.333,182.833 491,182.5C 487.51,186.588 484.51,186.255 482,181.5C 481.501,185.821 481.334,190.154 481.5,194.5C 477.601,174.874 485.267,162.041 504.5,156C 520.663,153.666 532.829,159.499 541,173.5C 541.494,175.134 541.66,176.801 541.5,178.5 Z"/></g>
<g><path style="opacity:1" fill="#1fcae2" d="M 541.5,178.5 C 544.089,185.063 543.923,191.729 541,198.5C 538.067,206.264 532.9,211.93 525.5,215.5C 525.167,215.5 524.833,215.5 524.5,215.5C 516.617,217.711 508.617,218.044 500.5,216.5C 499.833,215.167 499.167,215.167 498.5,216.5C 491.477,211.974 485.977,205.974 482,198.5C 481.51,197.207 481.343,195.873 481.5,194.5C 481.334,190.154 481.501,185.821 482,181.5C 484.51,186.255 487.51,186.588 491,182.5C 491.333,182.833 491.667,183.167 492,183.5C 493.114,179.544 493.947,179.544 494.5,183.5C 496.167,183.5 497.833,183.5 499.5,183.5C 499.5,184.833 499.5,186.167 499.5,187.5C 502.711,187.012 505.544,187.679 508,189.5C 509.363,187.216 510.863,187.049 512.5,189C 511.328,189.419 510.328,190.085 509.5,191C 511.484,192.267 513.484,191.934 515.5,190C 514.664,188.757 514.997,187.59 516.5,186.5C 520.094,187.426 523.76,187.759 527.5,187.5C 527.5,186.167 527.5,184.833 527.5,183.5C 532.101,182.758 535.434,184.425 537.5,188.5C 538.251,187.624 538.751,186.624 539,185.5C 539.333,185.833 539.667,186.167 540,186.5C 540.183,183.635 540.683,180.969 541.5,178.5 Z"/></g>
<g><path style="opacity:1" fill="#21d1e6" d="M 595.5,211.5 C 594.504,211.586 593.671,211.252 593,210.5C 592.506,212.134 592.34,213.801 592.5,215.5C 593.675,215.281 594.675,215.614 595.5,216.5C 594.947,218.727 594.947,221.061 595.5,223.5C 594.178,223.67 593.011,223.337 592,222.5C 580.914,223.58 569.747,224.247 558.5,224.5C 558.509,222.692 558.009,221.025 557,219.5C 554.674,222.011 551.841,223.344 548.5,223.5C 547.787,227.632 547.12,231.799 546.5,236C 547.022,240.868 547.689,245.701 548.5,250.5C 540.649,232.41 544.983,217.91 561.5,207C 573.914,201.465 585.247,202.965 595.5,211.5 Z"/></g>
<g><path style="opacity:1" fill="#24cce2" d="M 464.5,262.5 C 464.5,261.5 464.5,260.5 464.5,259.5C 468.139,258.732 467.806,258.066 463.5,257.5C 463.5,256.5 463.5,255.5 463.5,254.5C 464.5,254.5 465.5,254.5 466.5,254.5C 466.154,251.398 466.821,248.565 468.5,246C 466.792,244.938 466.126,243.771 466.5,242.5C 465.522,242.977 464.689,243.643 464,244.5C 459.3,243.714 454.634,243.381 450,243.5C 449.667,244.167 449.333,244.833 449,245.5C 447.418,244.04 446.085,242.373 445,240.5C 444.411,242.863 442.911,243.863 440.5,243.5C 440.67,244.822 440.337,245.989 439.5,247C 436.729,246.653 434.062,246.82 431.5,247.5C 431.852,250.073 431.352,252.406 430,254.5C 428.059,250.446 427.225,250.78 427.5,255.5C 429.604,255.201 431.604,255.534 433.5,256.5C 432.624,257.251 431.624,257.751 430.5,258C 431.337,259.011 431.67,260.178 431.5,261.5C 433.2,261.374 434.7,260.707 436,259.5C 437.171,260.34 438.338,261.173 439.5,262C 437.881,262.236 436.881,263.069 436.5,264.5C 421.708,257.593 415.208,245.927 417,229.5C 421.32,213.819 431.653,205.152 448,203.5C 467.43,205.43 477.93,216.097 479.5,235.5C 478.881,247.083 473.881,256.083 464.5,262.5 Z"/></g>
<g><path style="opacity:1" fill="#23c8e0" d="M 595.5,211.5 C 600.569,215.295 603.903,220.295 605.5,226.5C 603.629,231.45 603.629,236.284 605.5,241C 605.637,243.556 604.804,245.723 603,247.5C 602.667,247.167 602.333,246.833 602,246.5C 601.506,248.134 601.34,249.801 601.5,251.5C 599.93,253.724 597.263,255.557 593.5,257C 593.833,257.333 594.167,257.667 594.5,258C 593.552,258.483 592.552,258.649 591.5,258.5C 591.567,259.959 591.234,261.292 590.5,262.5C 589.739,263.391 588.739,264.058 587.5,264.5C 586.5,285.823 586.167,307.156 586.5,328.5C 585.833,307.329 585.167,285.996 584.5,264.5C 576.237,266.29 568.237,265.623 560.5,262.5C 560.167,262.5 559.833,262.5 559.5,262.5C 554.92,259.341 551.253,255.341 548.5,250.5C 547.689,245.701 547.022,240.868 546.5,236C 547.12,231.799 547.787,227.632 548.5,223.5C 551.841,223.344 554.674,222.011 557,219.5C 558.009,221.025 558.509,222.692 558.5,224.5C 569.747,224.247 580.914,223.58 592,222.5C 593.011,223.337 594.178,223.67 595.5,223.5C 594.947,221.061 594.947,218.727 595.5,216.5C 594.675,215.614 593.675,215.281 592.5,215.5C 592.34,213.801 592.506,212.134 593,210.5C 593.671,211.252 594.504,211.586 595.5,211.5 Z"/></g>
<g><path style="opacity:1" fill="#112a42" d="M 524.5,215.5 C 524.5,253.167 524.5,290.833 524.5,328.5C 536.5,328.5 548.5,328.5 560.5,328.5C 560.5,306.5 560.5,284.5 560.5,262.5C 568.237,265.623 576.237,266.29 584.5,264.5C 585.167,285.996 585.833,307.329 586.5,328.5C 614.169,328.333 641.835,328.5 669.5,329C 684.617,333.785 693.784,343.951 697,359.5C 697.5,380.164 697.667,400.831 697.5,421.5C 714.662,422.662 731.995,422.829 749.5,422C 750.056,421.617 750.389,421.117 750.5,420.5C 753.201,413.629 757.868,408.462 764.5,405C 782.602,398.481 796.435,403.647 806,420.5C 812.481,442.459 804.981,456.959 783.5,464C 768.677,465.922 757.677,460.422 750.5,447.5C 732.91,446.501 714.577,446.168 695.5,446.5C 695.333,465.836 695.5,485.17 696,504.5C 714.09,505.492 732.257,505.826 750.5,505.5C 750.5,506.167 750.5,506.833 750.5,507.5C 747.788,514.502 748.121,521.502 751.5,528.5C 751.376,529.107 751.043,529.44 750.5,529.5C 732.5,529.5 714.5,529.5 696.5,529.5C 696.17,548.674 696.503,567.674 697.5,586.5C 715.503,586.667 733.503,586.5 751.5,586C 763.561,569.732 778.228,566.399 795.5,576C 809.697,588.869 812.197,603.702 803,620.5C 787.063,637.454 770.729,637.787 754,621.5C 752.247,618.995 750.747,616.329 749.5,613.5C 732.179,612.5 714.846,612.167 697.5,612.5C 697.667,632.836 697.5,653.169 697,673.5C 693.575,688.591 684.409,698.091 669.5,702C 641.835,702.5 614.169,702.667 586.5,702.5C 586.333,715.171 586.5,727.838 587,740.5C 606.694,751.876 611.028,767.543 600,787.5C 587.587,800.901 573.42,803.067 557.5,794C 544.492,782.154 541.992,768.32 550,752.5C 552.075,749.651 554.575,747.318 557.5,745.5C 558.496,745.586 559.329,745.252 560,744.5C 560.827,730.327 560.661,716.327 559.5,702.5C 548.167,702.5 536.833,702.5 525.5,702.5C 536.993,701.669 548.659,701.169 560.5,701C 548.258,700.179 536.091,700.346 524,701.5C 523.5,729.831 523.333,758.165 523.5,786.5C 515.967,784.218 508.3,783.884 500.5,785.5C 500.667,757.831 500.5,730.165 500,702.5C 499.31,701.262 498.81,701.262 498.5,702.5C 487.167,702.5 475.833,702.5 464.5,702.5C 463.502,726.328 463.169,750.328 463.5,774.5C 462.732,773.737 462.232,772.737 462,771.5C 461.667,747.833 461.333,724.167 461,700.5C 459.211,702.229 457.044,702.896 454.5,702.5C 453.999,709.711 454.666,716.711 456.5,723.5C 455.357,726.006 454.69,728.672 454.5,731.5C 455.116,735.145 455.45,738.812 455.5,742.5C 453.167,742.5 450.833,742.5 448.5,742.5C 448.666,736.158 448.5,729.825 448,723.5C 446.701,723.966 445.201,723.966 443.5,723.5C 443.657,724.873 443.49,726.207 443,727.5C 442.007,723.558 441.34,719.558 441,715.5C 440.829,723.344 440.329,731.011 439.5,738.5C 440.146,726.12 439.479,714.12 437.5,702.5C 437.167,702.5 436.833,702.5 436.5,702.5C 407.783,702.967 379.116,702.467 350.5,701C 336.948,695.28 329.281,685.113 327.5,670.5C 327.5,650.833 327.5,631.167 327.5,611.5C 310.658,611.17 293.992,611.503 277.5,612.5C 266.417,633.36 250.417,638.193 229.5,627C 216.13,614.233 213.963,599.733 223,583.5C 236.099,569.145 250.932,566.978 267.5,577C 270.094,579.086 272.094,581.586 273.5,584.5C 273.414,585.496 273.748,586.329 274.5,587C 291.672,587.828 308.672,587.662 325.5,586.5C 325.833,586.5 326.167,586.5 326.5,586.5C 327.497,567.674 327.83,548.674 327.5,529.5C 310.167,529.5 292.833,529.5 275.5,529.5C 274.957,529.44 274.624,529.107 274.5,528.5C 276.479,522.316 276.979,515.983 276,509.5C 275.722,508.584 275.222,507.918 274.5,507.5C 274.5,506.833 274.5,506.167 274.5,505.5C 292.5,505.5 310.5,505.5 328.5,505.5C 328.83,485.993 328.497,466.659 327.5,447.5C 327.167,447.5 326.833,447.5 326.5,447.5C 309.706,447.371 292.706,447.538 275.5,448C 264.411,464.774 249.745,468.774 231.5,460C 216.629,448.185 213.463,433.685 222,416.5C 229.639,406.347 239.639,401.347 252,401.5C 262.629,403.39 270.463,409.056 275.5,418.5C 275.34,420.199 275.506,421.866 276,423.5C 276.383,422.944 276.883,422.611 277.5,422.5C 294.659,423.497 311.992,423.83 329.5,423.5C 329.557,399.633 329.557,375.966 329.5,352.5C 333.786,339.881 342.453,332.214 355.5,329.5C 361.324,330.166 367.324,330.5 373.5,330.5C 395.572,330.094 416.906,329.428 437.5,328.5C 437.5,328.167 437.5,327.833 437.5,327.5C 438.268,325.285 438.935,322.952 439.5,320.5C 440.468,322.607 440.802,324.941 440.5,327.5C 445.5,327.5 450.5,327.5 455.5,327.5C 455.5,328.833 455.5,330.167 455.5,331.5C 456.833,331.5 458.167,331.5 459.5,331.5C 458.886,327.865 458.552,324.198 458.5,320.5C 459.5,320.5 460.5,320.5 461.5,320.5C 461.5,301.167 461.5,281.833 461.5,262.5C 463.489,284.141 464.156,306.141 463.5,328.5C 475.167,329.833 486.833,329.833 498.5,328.5C 499.117,328.389 499.617,328.056 500,327.5C 500.5,290.502 500.667,253.502 500.5,216.5C 508.617,218.044 516.617,217.711 524.5,215.5 Z M 518.5,384.5 C 535.286,386.541 551.286,391.207 566.5,398.5C 626.309,433.129 649.476,484.462 636,552.5C 615.804,610.284 575.137,641.951 514,647.5C 492.294,648.284 471.794,643.45 452.5,633C 448.803,630.158 445.137,627.325 441.5,624.5C 438.567,619.022 436.233,613.355 434.5,607.5C 434.122,601.69 434.789,596.024 436.5,590.5C 434.86,587.196 432.527,584.529 429.5,582.5C 429.167,581.5 428.5,580.833 427.5,580.5C 417.297,565.741 410.631,549.408 407.5,531.5C 405.802,512.925 408.135,494.925 414.5,477.5C 424.998,455.011 440.331,436.511 460.5,422C 465.243,418.962 470.243,416.462 475.5,414.5C 467.17,423.666 459.003,432.999 451,442.5C 436.601,461.992 432.434,483.326 438.5,506.5C 445.976,534.312 463.976,549.979 492.5,553.5C 495.962,554.482 499.629,554.815 503.5,554.5C 503.826,563.017 503.493,571.35 502.5,579.5C 501.395,578.4 500.062,577.733 498.5,577.5C 488.993,571.382 478.659,569.882 467.5,573C 446.696,583.416 441.529,598.916 452,619.5C 461.182,630.499 472.682,634.833 486.5,632.5C 498.325,631.183 507.491,625.516 514,615.5C 516.076,612.107 517.242,608.44 517.5,604.5C 518.498,567.337 518.832,530.004 518.5,492.5C 520.5,492.5 522.5,492.5 524.5,492.5C 526.965,492.767 529.299,493.434 531.5,494.5C 531.5,518.167 531.5,541.833 531.5,565.5C 531.5,570.833 531.5,576.167 531.5,581.5C 533.735,581.795 535.735,581.461 537.5,580.5C 542.669,580.001 547.336,578.334 551.5,575.5C 554.295,574.937 556.628,573.604 558.5,571.5C 558.435,571.938 558.601,572.272 559,572.5C 560.481,571.529 561.315,570.196 561.5,568.5C 564.167,566.5 566.5,564.167 568.5,561.5C 569.906,561.027 570.573,560.027 570.5,558.5C 571.167,558.5 571.5,558.167 571.5,557.5C 572.906,557.027 573.573,556.027 573.5,554.5C 574.338,554.158 574.672,553.492 574.5,552.5C 576.539,551.089 577.539,549.089 577.5,546.5C 579.601,543.203 580.935,539.537 581.5,535.5C 582.344,531.901 582.677,528.234 582.5,524.5C 582.837,494.343 568.837,474.176 540.5,464C 533.279,462.183 525.946,461.349 518.5,461.5C 518.5,435.833 518.5,410.167 518.5,384.5 Z"/></g>
<g><path style="opacity:1" fill="#3bc4db" d="M 464.5,262.5 C 464.5,284.5 464.5,306.5 464.5,328.5C 464.167,328.5 463.833,328.5 463.5,328.5C 464.156,306.141 463.489,284.141 461.5,262.5C 459.641,263.594 457.641,264.427 455.5,265C 450.177,265.499 444.844,265.666 439.5,265.5C 439.44,264.957 439.107,264.624 438.5,264.5C 437.506,269.456 437.173,274.456 437.5,279.5C 436.513,274.695 436.179,269.695 436.5,264.5C 436.881,263.069 437.881,262.236 439.5,262C 438.338,261.173 437.171,260.34 436,259.5C 434.7,260.707 433.2,261.374 431.5,261.5C 431.67,260.178 431.337,259.011 430.5,258C 431.624,257.751 432.624,257.251 433.5,256.5C 431.604,255.534 429.604,255.201 427.5,255.5C 427.225,250.78 428.059,250.446 430,254.5C 431.352,252.406 431.852,250.073 431.5,247.5C 434.062,246.82 436.729,246.653 439.5,247C 440.337,245.989 440.67,244.822 440.5,243.5C 442.911,243.863 444.411,242.863 445,240.5C 446.085,242.373 447.418,244.04 449,245.5C 449.333,244.833 449.667,244.167 450,243.5C 454.634,243.381 459.3,243.714 464,244.5C 464.689,243.643 465.522,242.977 466.5,242.5C 466.126,243.771 466.792,244.938 468.5,246C 466.821,248.565 466.154,251.398 466.5,254.5C 465.5,254.5 464.5,254.5 463.5,254.5C 463.5,255.5 463.5,256.5 463.5,257.5C 467.806,258.066 468.139,258.732 464.5,259.5C 464.5,260.5 464.5,261.5 464.5,262.5 Z"/></g>
<g><path style="opacity:1" fill="#97a3ac" d="M 524.5,215.5 C 524.833,215.5 525.167,215.5 525.5,215.5C 525.5,252.833 525.5,290.167 525.5,327.5C 536.833,327.5 548.167,327.5 559.5,327.5C 559.5,305.833 559.5,284.167 559.5,262.5C 559.833,262.5 560.167,262.5 560.5,262.5C 560.5,284.5 560.5,306.5 560.5,328.5C 548.5,328.5 536.5,328.5 524.5,328.5C 524.5,290.833 524.5,253.167 524.5,215.5 Z"/></g>
<g><path style="opacity:1" fill="#6cd6e4" d="M 605.5,226.5 C 608.891,236.784 607.058,246.45 600,255.5C 597.499,258.848 594.332,261.182 590.5,262.5C 591.234,261.292 591.567,259.959 591.5,258.5C 592.552,258.649 593.552,258.483 594.5,258C 594.167,257.667 593.833,257.333 593.5,257C 597.263,255.557 599.93,253.724 601.5,251.5C 601.34,249.801 601.506,248.134 602,246.5C 602.333,246.833 602.667,247.167 603,247.5C 604.804,245.723 605.637,243.556 605.5,241C 603.629,236.284 603.629,231.45 605.5,226.5 Z"/></g>
<g><path style="opacity:1" fill="#0e2c49" d="M 461.5,262.5 C 461.5,281.833 461.5,301.167 461.5,320.5C 460.5,320.5 459.5,320.5 458.5,320.5C 458.552,324.198 458.886,327.865 459.5,331.5C 458.167,331.5 456.833,331.5 455.5,331.5C 455.5,330.167 455.5,328.833 455.5,327.5C 450.5,327.5 445.5,327.5 440.5,327.5C 440.802,324.941 440.468,322.607 439.5,320.5C 439.5,302.167 439.5,283.833 439.5,265.5C 444.844,265.666 450.177,265.499 455.5,265C 457.641,264.427 459.641,263.594 461.5,262.5 Z"/></g>
<g><path style="opacity:1" fill="#031425" d="M 439.5,265.5 C 439.5,283.833 439.5,302.167 439.5,320.5C 438.935,322.952 438.268,325.285 437.5,327.5C 437.5,311.5 437.5,295.5 437.5,279.5C 437.173,274.456 437.506,269.456 438.5,264.5C 439.107,264.624 439.44,264.957 439.5,265.5 Z"/></g>
<g><path style="opacity:1" fill="#0d1a28" d="M 500.5,216.5 C 500.667,253.502 500.5,290.502 500,327.5C 499.617,328.056 499.117,328.389 498.5,328.5C 498.5,291.167 498.5,253.833 498.5,216.5C 499.167,215.167 499.833,215.167 500.5,216.5 Z"/></g>
<g><path style="opacity:1" fill="#051827" d="M 437.5,328.5 C 416.906,329.428 395.572,330.094 373.5,330.5C 367.324,330.5 361.324,330.166 355.5,329.5C 382.662,328.502 409.995,328.169 437.5,328.5 Z"/></g>
<g><path style="opacity:1" fill="#0b1626" d="M 498.5,328.5 C 486.833,329.833 475.167,329.833 463.5,328.5C 463.833,328.5 464.167,328.5 464.5,328.5C 475.742,328.253 487.075,328.253 498.5,328.5 Z"/></g>
<g><path style="opacity:1" fill="#102b45" d="M 566.5,398.5 C 551.286,391.207 535.286,386.541 518.5,384.5C 518.167,384.5 517.833,384.5 517.5,384.5C 517.5,383.5 517.5,382.5 517.5,381.5C 519.527,381.662 521.527,381.495 523.5,381C 522.552,380.517 521.552,380.351 520.5,380.5C 520.5,379.167 520.5,377.833 520.5,376.5C 522.806,376.007 525.139,375.674 527.5,375.5C 527.5,370.167 527.5,364.833 527.5,359.5C 535.5,359.5 543.5,359.5 551.5,359.5C 551.5,358.167 551.5,356.833 551.5,355.5C 562.5,355.5 573.5,355.5 584.5,355.5C 584.797,359.767 584.464,363.934 583.5,368C 586.167,368.667 588.833,368.667 591.5,368C 592.471,362.928 592.805,357.762 592.5,352.5C 594.5,352.5 596.5,352.5 598.5,352.5C 597.405,360.296 600.572,362.63 608,359.5C 608.497,356.854 608.664,354.187 608.5,351.5C 612.167,351.5 615.833,351.5 619.5,351.5C 619.5,352.833 619.5,354.167 619.5,355.5C 632.833,355.5 646.167,355.5 659.5,355.5C 659.5,356.833 659.5,358.167 659.5,359.5C 660.833,359.5 662.167,359.5 663.5,359.5C 663.5,362.167 663.5,364.833 663.5,367.5C 664.833,367.5 666.167,367.5 667.5,367.5C 667.5,368.833 667.5,370.167 667.5,371.5C 668.833,371.5 670.167,371.5 671.5,371.5C 671.5,375.5 671.5,379.5 671.5,383.5C 672.833,383.5 674.167,383.5 675.5,383.5C 675.5,386.167 675.5,388.833 675.5,391.5C 676.833,391.5 678.167,391.5 679.5,391.5C 679.5,394.167 679.5,396.833 679.5,399.5C 676.833,399.5 674.167,399.5 671.5,399.5C 671.5,412.5 671.5,425.5 671.5,438.5C 670.167,438.5 668.833,438.5 667.5,438.5C 667.5,436.167 667.5,433.833 667.5,431.5C 662.167,431.5 656.833,431.5 651.5,431.5C 651.5,430.167 651.5,428.833 651.5,427.5C 650.167,427.5 648.833,427.5 647.5,427.5C 647.5,426.167 647.5,424.833 647.5,423.5C 644.833,423.5 642.167,423.5 639.5,423.5C 639.5,418.167 639.5,412.833 639.5,407.5C 636.833,407.5 634.167,407.5 631.5,407.5C 631.5,402.167 631.5,396.833 631.5,391.5C 624.833,391.5 618.167,391.5 611.5,391.5C 611.5,390.167 611.5,388.833 611.5,387.5C 610.167,387.5 608.833,387.5 607.5,387.5C 607.5,388.833 607.5,390.167 607.5,391.5C 606.167,391.5 604.833,391.5 603.5,391.5C 603.5,390.167 603.5,388.833 603.5,387.5C 602.167,387.5 600.833,387.5 599.5,387.5C 599.5,386.167 599.5,384.833 599.5,383.5C 591.5,383.5 583.5,383.5 575.5,383.5C 575.5,387.5 575.5,391.5 575.5,395.5C 572.008,395.446 569.008,396.446 566.5,398.5 Z"/></g>
<g><path style="opacity:1" fill="#222d3c" d="M 329.5,352.5 C 329.557,375.966 329.557,399.633 329.5,423.5C 311.992,423.83 294.659,423.497 277.5,422.5C 293.009,422.83 308.342,422.496 323.5,421.5C 324.5,421.5 325.5,421.5 326.5,421.5C 327.574,403.703 327.574,386.536 326.5,370C 326.956,363.969 327.956,358.136 329.5,352.5 Z"/></g>
<g><path style="opacity:1" fill="#13cfe5" d="M 481.5,409.5 C 477.674,411.463 474.507,410.796 472,407.5C 470.933,408.191 469.766,408.691 468.5,409C 469.167,409.333 469.833,409.667 470.5,410C 469.809,411.067 469.309,412.234 469,413.5C 468.586,413.043 468.086,412.709 467.5,412.5C 466.115,416.378 464.949,416.378 464,412.5C 463.586,412.957 463.086,413.291 462.5,413.5C 460.833,412.5 459.167,411.5 457.5,410.5C 454.766,411.434 452.266,410.767 450,408.5C 448.629,409.581 447.129,410.415 445.5,411C 446.167,411.333 446.833,411.667 447.5,412C 446.405,413.675 444.905,414.842 443,415.5C 442.186,413.718 441.019,412.218 439.5,411C 440.056,410.617 440.389,410.117 440.5,409.5C 449.522,402.316 459.522,396.65 470.5,392.5C 481.182,388.231 492.182,385.898 503.5,385.5C 496.485,393.846 489.152,401.846 481.5,409.5 Z"/></g>
<g><path style="opacity:1" fill="#22c4df" d="M 481.5,409.5 C 480.167,411.5 478.5,413.167 476.5,414.5C 476.167,413.167 475.833,413.167 475.5,414.5C 470.243,416.462 465.243,418.962 460.5,422C 440.331,436.511 424.998,455.011 414.5,477.5C 414.201,475.396 414.534,473.396 415.5,471.5C 418.674,466.475 421.174,461.142 423,455.5C 424.011,454.663 425.178,454.33 426.5,454.5C 426.736,452.027 428.069,450.36 430.5,449.5C 431.18,447.111 432.014,444.778 433,442.5C 433.893,443.711 434.726,443.711 435.5,442.5C 434.289,441.28 434.289,440.113 435.5,439C 433.19,438.503 430.857,438.337 428.5,438.5C 428.167,434.5 427.833,434.5 427.5,438.5C 424.833,438.833 422.167,439.167 419.5,439.5C 419.5,440.833 419.5,442.167 419.5,443.5C 414.019,443.155 412.686,445.155 415.5,449.5C 414.975,450.192 414.308,450.692 413.5,451C 413.833,451.333 414.167,451.667 414.5,452C 412.497,453.819 411.164,455.985 410.5,458.5C 409.325,458.281 408.325,458.614 407.5,459.5C 405.726,462.715 404.226,466.048 403,469.5C 403.619,474.215 403.453,478.881 402.5,483.5C 401.5,483.5 400.5,483.5 399.5,483.5C 399.5,484.833 399.5,486.167 399.5,487.5C 395.486,486.824 392.486,488.157 390.5,491.5C 389.5,491.167 388.833,490.5 388.5,489.5C 390.833,487.667 393.167,485.833 395.5,484C 394.833,483.667 394.167,483.333 393.5,483C 394.128,480.391 395.128,477.725 396.5,475C 395.066,472.051 395.232,469.218 397,466.5C 397.691,468.891 398.691,468.891 400,466.5C 400.321,462.198 401.987,458.531 405,455.5C 405.494,453.866 405.66,452.199 405.5,450.5C 404.5,450.5 403.5,450.5 402.5,450.5C 407.342,441.818 413.175,433.818 420,426.5C 426.434,420.221 433.268,414.555 440.5,409.5C 440.389,410.117 440.056,410.617 439.5,411C 441.019,412.218 442.186,413.718 443,415.5C 444.905,414.842 446.405,413.675 447.5,412C 446.833,411.667 446.167,411.333 445.5,411C 447.129,410.415 448.629,409.581 450,408.5C 452.266,410.767 454.766,411.434 457.5,410.5C 459.167,411.5 460.833,412.5 462.5,413.5C 463.086,413.291 463.586,412.957 464,412.5C 464.949,416.378 466.115,416.378 467.5,412.5C 468.086,412.709 468.586,413.043 469,413.5C 469.309,412.234 469.809,411.067 470.5,410C 469.833,409.667 469.167,409.333 468.5,409C 469.766,408.691 470.933,408.191 472,407.5C 474.507,410.796 477.674,411.463 481.5,409.5 Z"/></g>
<g><path style="opacity:1" fill="#38464f" d="M 275.5,418.5 C 276.267,419.172 276.934,420.005 277.5,421C 292.83,421.5 308.163,421.667 323.5,421.5C 308.342,422.496 293.009,422.83 277.5,422.5C 276.883,422.611 276.383,422.944 276,423.5C 275.506,421.866 275.34,420.199 275.5,418.5 Z"/></g>
<g><path style="opacity:1" fill="#354452" d="M 750.5,420.5 C 750.389,421.117 750.056,421.617 749.5,422C 731.995,422.829 714.662,422.662 697.5,421.5C 715.214,421.806 732.88,421.473 750.5,420.5 Z"/></g>
<g><path style="opacity:1" fill="#0cbddc" d="M 414.5,477.5 C 413.504,477.414 412.671,477.748 412,478.5C 410.22,482.281 409.053,486.281 408.5,490.5C 407.521,489.235 406.521,487.901 405.5,486.5C 404.914,486.709 404.414,487.043 404,487.5C 403.79,485.942 403.29,484.609 402.5,483.5C 403.453,478.881 403.619,474.215 403,469.5C 404.226,466.048 405.726,462.715 407.5,459.5C 408.325,458.614 409.325,458.281 410.5,458.5C 411.164,455.985 412.497,453.819 414.5,452C 414.167,451.667 413.833,451.333 413.5,451C 414.308,450.692 414.975,450.192 415.5,449.5C 412.686,445.155 414.019,443.155 419.5,443.5C 419.5,442.167 419.5,440.833 419.5,439.5C 422.167,439.167 424.833,438.833 427.5,438.5C 427.833,434.5 428.167,434.5 428.5,438.5C 430.857,438.337 433.19,438.503 435.5,439C 434.289,440.113 434.289,441.28 435.5,442.5C 434.726,443.711 433.893,443.711 433,442.5C 432.014,444.778 431.18,447.111 430.5,449.5C 428.069,450.36 426.736,452.027 426.5,454.5C 425.178,454.33 424.011,454.663 423,455.5C 421.174,461.142 418.674,466.475 415.5,471.5C 414.534,473.396 414.201,475.396 414.5,477.5 Z"/></g>
<g><path style="opacity:1" fill="#132d46" d="M 517.5,384.5 C 517.833,384.5 518.167,384.5 518.5,384.5C 518.5,410.167 518.5,435.833 518.5,461.5C 525.946,461.349 533.279,462.183 540.5,464C 568.837,474.176 582.837,494.343 582.5,524.5C 581.532,526.607 581.198,528.941 581.5,531.5C 578.401,531.092 576.067,532.259 574.5,535C 571.833,535.333 569.167,535.667 566.5,536C 566.957,536.414 567.291,536.914 567.5,537.5C 564.476,541.256 562.809,545.59 562.5,550.5C 560.706,548.33 558.706,548.33 556.5,550.5C 561.013,555.244 561.68,560.577 558.5,566.5C 555.874,567.449 553.208,567.449 550.5,566.5C 550.662,564.473 550.495,562.473 550,560.5C 549.586,560.043 549.086,559.709 548.5,559.5C 547.52,562.086 547.187,564.753 547.5,567.5C 548.833,567.5 550.167,567.5 551.5,567.5C 550.768,570.266 550.768,572.932 551.5,575.5C 547.336,578.334 542.669,580.001 537.5,580.5C 535.833,580.5 534.167,580.5 532.5,580.5C 532.5,575.5 532.5,570.5 532.5,565.5C 550.474,555.48 557.641,540.147 554,519.5C 552.772,514.038 550.272,509.371 546.5,505.5C 544.1,502.097 541.1,499.43 537.5,497.5C 535.75,496.13 533.75,495.13 531.5,494.5C 529.299,493.434 526.965,492.767 524.5,492.5C 522.393,491.532 520.059,491.198 517.5,491.5C 516.679,494.641 516.179,497.975 516,501.5C 515.16,505.063 513.826,508.397 512,511.5C 511.75,515.138 511.583,518.638 511.5,522C 509.837,522.265 508.337,521.765 507,520.5C 506.333,512.5 506.333,504.5 507,496.5C 508.401,494.808 510.234,494.141 512.5,494.5C 512.33,493.178 512.663,492.011 513.5,491C 512.451,490.508 511.451,490.674 510.5,491.5C 509.571,490.311 509.238,488.978 509.5,487.5C 507.5,487.5 505.5,487.5 503.5,487.5C 504.037,490.972 503.037,493.805 500.5,496C 499.551,496.617 498.718,496.451 498,495.5C 497.692,496.308 497.192,496.975 496.5,497.5C 495.377,496.456 494.044,495.79 492.5,495.5C 490.776,495.904 489.109,496.071 487.5,496C 488.167,495.333 488.833,494.667 489.5,494C 489.203,490.502 487.87,487.502 485.5,485C 487.336,482.507 488.336,479.674 488.5,476.5C 492.371,471.889 497.038,468.222 502.5,465.5C 503.666,455.183 503.832,444.849 503,434.5C 492.627,442.706 483.46,452.04 475.5,462.5C 474.07,462.421 472.736,462.754 471.5,463.5C 470.641,466 469.641,468.333 468.5,470.5C 468.336,467.813 468.503,465.146 469,462.5C 471.3,460.933 473.8,459.767 476.5,459C 475.874,458.25 475.374,457.416 475,456.5C 473.388,459.079 471.888,459.079 470.5,456.5C 468.257,455.526 465.924,455.192 463.5,455.5C 463.661,459.723 462.994,463.723 461.5,467.5C 464.588,467.197 466.254,468.53 466.5,471.5C 464.167,471.5 461.833,471.5 459.5,471.5C 459.5,474.167 459.5,476.833 459.5,479.5C 453.491,479.666 447.491,479.499 441.5,479C 443.797,476.221 443.964,473.388 442,470.5C 441.246,480.263 439.746,489.929 437.5,499.5C 437.737,502.063 438.237,502.063 439,499.5C 439.018,501.797 438.851,504.131 438.5,506.5C 432.434,483.326 436.601,461.992 451,442.5C 459.003,432.999 467.17,423.666 475.5,414.5C 475.833,414.5 476.167,414.5 476.5,414.5C 478.5,413.167 480.167,411.5 481.5,409.5C 489.152,401.846 496.485,393.846 503.5,385.5C 492.182,385.898 481.182,388.231 470.5,392.5C 470.511,390.983 471.177,389.816 472.5,389C 474.833,388.667 477.167,388.333 479.5,388C 478.019,387.02 476.685,385.853 475.5,384.5C 478.588,383.921 481.255,382.587 483.5,380.5C 494.146,379.501 504.813,379.168 515.5,379.5C 516.308,407.137 516.808,434.804 517,462.5C 517.5,436.502 517.667,410.502 517.5,384.5 Z"/></g>
<g><path style="opacity:1" fill="#10cbe2" d="M 488.5,476.5 C 487.167,477.167 486.167,478.167 485.5,479.5C 483.403,479.997 481.57,480.33 480,480.5C 479.667,479.833 479.333,479.167 479,478.5C 478.471,480.585 478.971,482.418 480.5,484C 480.167,484.5 479.833,485 479.5,485.5C 474.71,487.507 471.21,489.841 469,492.5C 467.603,487.292 467.103,481.959 467.5,476.5C 469.649,471.535 472.316,466.868 475.5,462.5C 483.46,452.04 492.627,442.706 503,434.5C 503.832,444.849 503.666,455.183 502.5,465.5C 497.038,468.222 492.371,471.889 488.5,476.5 Z"/></g>
<g><path style="opacity:1" fill="#112c46" d="M 468.5,470.5 C 461.019,483.588 460.686,496.588 467.5,509.5C 471.201,518.703 477.534,525.537 486.5,530C 489.126,530.995 491.793,531.328 494.5,531C 481.304,521.095 476.138,507.928 479,491.5C 480.518,487.08 482.685,483.08 485.5,479.5C 486.167,478.167 487.167,477.167 488.5,476.5C 488.336,479.674 487.336,482.507 485.5,485C 487.87,487.502 489.203,490.502 489.5,494C 488.833,494.667 488.167,495.333 487.5,496C 489.109,496.071 490.776,495.904 492.5,495.5C 494.044,495.79 495.377,496.456 496.5,497.5C 497.192,496.975 497.692,496.308 498,495.5C 498.718,496.451 499.551,496.617 500.5,496C 503.037,493.805 504.037,490.972 503.5,487.5C 505.5,487.5 507.5,487.5 509.5,487.5C 509.238,488.978 509.571,490.311 510.5,491.5C 511.451,490.674 512.451,490.508 513.5,491C 512.663,492.011 512.33,493.178 512.5,494.5C 510.234,494.141 508.401,494.808 507,496.5C 506.333,504.5 506.333,512.5 507,520.5C 508.337,521.765 509.837,522.265 511.5,522C 511.583,518.638 511.75,515.138 512,511.5C 513.826,508.397 515.16,505.063 516,501.5C 516.179,497.975 516.679,494.641 517.5,491.5C 517.5,529.167 517.5,566.833 517.5,604.5C 517.242,608.44 516.076,612.107 514,615.5C 507.491,625.516 498.325,631.183 486.5,632.5C 486.611,631.883 486.944,631.383 487.5,631C 484.854,630.503 482.187,630.336 479.5,630.5C 479.362,620.146 479.695,609.812 480.5,599.5C 482.833,599.5 485.167,599.5 487.5,599.5C 487.5,596.833 487.5,594.167 487.5,591.5C 482.167,591.167 476.833,590.833 471.5,590.5C 471.5,588.5 471.5,586.5 471.5,584.5C 473.144,584.714 474.644,584.38 476,583.5C 476.728,580.77 476.562,578.103 475.5,575.5C 475.833,574.5 476.5,573.833 477.5,573.5C 484.653,574.114 491.653,575.447 498.5,577.5C 500.062,577.733 501.395,578.4 502.5,579.5C 502.56,580.043 502.893,580.376 503.5,580.5C 504.498,571.525 504.832,562.525 504.5,553.5C 500.5,553.5 496.5,553.5 492.5,553.5C 463.976,549.979 445.976,534.312 438.5,506.5C 438.851,504.131 439.018,501.797 439,499.5C 438.237,502.063 437.737,502.063 437.5,499.5C 439.746,489.929 441.246,480.263 442,470.5C 443.964,473.388 443.797,476.221 441.5,479C 447.491,479.499 453.491,479.666 459.5,479.5C 459.5,476.833 459.5,474.167 459.5,471.5C 461.833,471.5 464.167,471.5 466.5,471.5C 466.254,468.53 464.588,467.197 461.5,467.5C 462.994,463.723 463.661,459.723 463.5,455.5C 465.924,455.192 468.257,455.526 470.5,456.5C 471.888,459.079 473.388,459.079 475,456.5C 475.374,457.416 475.874,458.25 476.5,459C 473.8,459.767 471.3,460.933 469,462.5C 468.503,465.146 468.336,467.813 468.5,470.5 Z"/></g>
<g><path style="opacity:1" fill="#132638" d="M 750.5,447.5 C 732.982,447.546 715.316,447.546 697.5,447.5C 697.5,466.167 697.5,484.833 697.5,503.5C 715.167,504.167 732.833,504.833 750.5,505.5C 732.257,505.826 714.09,505.492 696,504.5C 695.5,485.17 695.333,465.836 695.5,446.5C 714.577,446.168 732.91,446.501 750.5,447.5 Z"/></g>
<g><path style="opacity:1" fill="#023f58" d="M 475.5,462.5 C 472.316,466.868 469.649,471.535 467.5,476.5C 463.639,487.345 463.639,498.345 467.5,509.5C 460.686,496.588 461.019,483.588 468.5,470.5C 469.641,468.333 470.641,466 471.5,463.5C 472.736,462.754 474.07,462.421 475.5,462.5 Z"/></g>
<g><path style="opacity:1" fill="#90e8f0" d="M 783.5,486.5 C 777.712,486.312 772.045,486.978 766.5,488.5C 771.935,485.552 777.601,484.886 783.5,486.5 Z"/></g>
<g><path style="opacity:1" fill="#20c3dc" d="M 783.5,486.5 C 803.145,491.408 811.645,504.074 809,524.5C 808.434,526.723 807.6,528.723 806.5,530.5C 806.715,528.821 806.048,527.821 804.5,527.5C 806.694,521.378 807.028,515.044 805.5,508.5C 802.867,507.699 801.033,506.033 800,503.5C 799.275,504.059 798.442,504.392 797.5,504.5C 793.936,503.953 790.436,503.286 787,502.5C 783.121,502.743 779.288,502.743 775.5,502.5C 774.52,505.086 774.187,507.753 774.5,510.5C 773.178,510.33 772.011,510.663 771,511.5C 770.144,509.132 769.31,506.798 768.5,504.5C 767.167,504.5 765.833,504.5 764.5,504.5C 763.833,506.5 763.167,508.5 762.5,510.5C 759.09,510.384 757.756,512.05 758.5,515.5C 756.167,515.5 753.833,515.5 751.5,515.5C 751.599,512.763 751.265,510.096 750.5,507.5C 750.5,506.833 750.5,506.167 750.5,505.5C 751.338,505.158 751.672,504.492 751.5,503.5C 754.167,496.167 759.167,491.167 766.5,488.5C 772.045,486.978 777.712,486.312 783.5,486.5 Z"/></g>
<g><path style="opacity:1" fill="#09bed6" d="M 402.5,450.5 C 403.5,450.5 404.5,450.5 405.5,450.5C 405.66,452.199 405.494,453.866 405,455.5C 401.987,458.531 400.321,462.198 400,466.5C 398.691,468.891 397.691,468.891 397,466.5C 395.232,469.218 395.066,472.051 396.5,475C 395.128,477.725 394.128,480.391 393.5,483C 394.167,483.333 394.833,483.667 395.5,484C 393.167,485.833 390.833,487.667 388.5,489.5C 388.833,490.5 389.5,491.167 390.5,491.5C 392.486,488.157 395.486,486.824 399.5,487.5C 399.5,486.167 399.5,484.833 399.5,483.5C 400.5,483.5 401.5,483.5 402.5,483.5C 403.29,484.609 403.79,485.942 404,487.5C 404.414,487.043 404.914,486.709 405.5,486.5C 406.521,487.901 407.521,489.235 408.5,490.5C 406.874,493.246 406.207,496.246 406.5,499.5C 405.883,499.611 405.383,499.944 405,500.5C 403.618,506.692 401.618,512.692 399,518.5C 396.931,519.264 394.764,519.764 392.5,520C 391.663,521.011 391.33,522.178 391.5,523.5C 390.5,523.5 389.5,523.5 388.5,523.5C 388.5,522.167 388.5,520.833 388.5,519.5C 387.167,519.5 385.833,519.5 384.5,519.5C 384.5,512.167 384.5,504.833 384.5,497.5C 387.307,480.599 393.307,464.932 402.5,450.5 Z"/></g>
<g><path style="opacity:1" fill="#13c1da" d="M 274.5,503.5 C 273.167,504.167 273.167,504.833 274.5,505.5C 274.5,506.167 274.5,506.833 274.5,507.5C 274.5,508.833 274.5,510.167 274.5,511.5C 269.833,511.5 267.5,513.833 267.5,518.5C 264.728,518.78 262.228,518.113 260,516.5C 259.517,517.448 259.351,518.448 259.5,519.5C 258.167,519.5 256.833,519.5 255.5,519.5C 255.404,515.689 254.738,515.689 253.5,519.5C 252.262,515.689 251.596,515.689 251.5,519.5C 247.818,519.665 244.152,519.499 240.5,519C 239.663,517.989 239.33,516.822 239.5,515.5C 235.649,514.971 232.149,515.638 229,517.5C 227.991,515.975 227.491,514.308 227.5,512.5C 226.167,512.5 224.833,512.5 223.5,512.5C 223.5,513.833 223.5,515.167 223.5,516.5C 221.856,516.714 220.356,516.38 219,515.5C 218.809,513.292 218.309,511.292 217.5,509.5C 218.301,507.958 218.634,506.292 218.5,504.5C 226.399,488.722 239.065,482.888 256.5,487C 264.905,490.01 270.905,495.51 274.5,503.5 Z"/></g>
<g><path style="opacity:1" fill="#78d3e3" d="M 414.5,477.5 C 408.135,494.925 405.802,512.925 407.5,531.5C 406.506,521.013 406.172,510.346 406.5,499.5C 406.207,496.246 406.874,493.246 408.5,490.5C 409.053,486.281 410.22,482.281 412,478.5C 412.671,477.748 413.504,477.414 414.5,477.5 Z"/></g>
<g><path style="opacity:1" fill="#19cdde" d="M 501.5,497.5 C 503.472,506.44 504.139,515.773 503.5,525.5C 497.628,522.1 494.628,516.933 494.5,510C 494.61,504.614 496.944,500.448 501.5,497.5 Z"/></g>
<g><path style="opacity:1" fill="#0fbedb" d="M 804.5,527.5 C 803.201,525.847 803.534,524.347 805.5,523C 803.44,520.988 801.94,518.821 801,516.5C 800.385,518.116 799.385,519.449 798,520.5C 795.677,520.669 793.344,520.003 791,518.5C 790.667,519.167 790.333,519.833 790,520.5C 788.482,520.943 787.315,520.276 786.5,518.5C 785.205,519.098 783.872,519.598 782.5,520C 782.957,520.414 783.291,520.914 783.5,521.5C 782.066,523.22 781.233,525.22 781,527.5C 780.182,522.206 779.682,522.206 779.5,527.5C 778.167,527.5 776.833,527.5 775.5,527.5C 775.833,530.5 774.5,531.833 771.5,531.5C 771.824,528.306 770.658,527.306 768,528.5C 767.333,525.833 766.667,525.833 766,528.5C 765.217,526.567 765.717,525.067 767.5,524C 766.407,522.635 765.074,522.301 763.5,523C 763.652,526.037 764.652,529.037 766.5,532C 764.545,532.953 762.878,534.287 761.5,536C 762.328,536.915 763.328,537.581 764.5,538C 763.167,539 761.833,540 760.5,541C 761.056,541.383 761.389,541.883 761.5,542.5C 756.467,539.798 752.8,535.798 750.5,530.5C 750.5,530.167 750.5,529.833 750.5,529.5C 751.043,529.44 751.376,529.107 751.5,528.5C 748.121,521.502 747.788,514.502 750.5,507.5C 751.265,510.096 751.599,512.763 751.5,515.5C 753.833,515.5 756.167,515.5 758.5,515.5C 757.756,512.05 759.09,510.384 762.5,510.5C 763.167,508.5 763.833,506.5 764.5,504.5C 765.833,504.5 767.167,504.5 768.5,504.5C 769.31,506.798 770.144,509.132 771,511.5C 772.011,510.663 773.178,510.33 774.5,510.5C 774.187,507.753 774.52,505.086 775.5,502.5C 779.288,502.743 783.121,502.743 787,502.5C 790.436,503.286 793.936,503.953 797.5,504.5C 798.442,504.392 799.275,504.059 800,503.5C 801.033,506.033 802.867,507.699 805.5,508.5C 807.028,515.044 806.694,521.378 804.5,527.5 Z"/></g>
<g><path style="opacity:1" fill="#69757d" d="M 326.5,447.5 C 326.833,447.5 327.167,447.5 327.5,447.5C 327.5,466.5 327.5,485.5 327.5,504.5C 309.659,504.17 291.992,504.503 274.5,505.5C 273.167,504.833 273.167,504.167 274.5,503.5C 291.833,503.5 309.167,503.5 326.5,503.5C 326.5,484.833 326.5,466.167 326.5,447.5 Z"/></g>
<g><path style="opacity:1" fill="#415362" d="M 697.5,503.5 C 715.5,503.5 733.5,503.5 751.5,503.5C 751.672,504.492 751.338,505.158 750.5,505.5C 732.833,504.833 715.167,504.167 697.5,503.5 Z"/></g>
<g><path style="opacity:1" fill="#01111f" d="M 327.5,447.5 C 328.497,466.659 328.83,485.993 328.5,505.5C 310.5,505.5 292.5,505.5 274.5,505.5C 291.992,504.503 309.659,504.17 327.5,504.5C 327.5,485.5 327.5,466.5 327.5,447.5 Z"/></g>
<g><path style="opacity:1" fill="#13c0d7" d="M 467.5,476.5 C 467.103,481.959 467.603,487.292 469,492.5C 471.21,489.841 474.71,487.507 479.5,485.5C 479.833,485 480.167,484.5 480.5,484C 478.971,482.418 478.471,480.585 479,478.5C 479.333,479.167 479.667,479.833 480,480.5C 481.57,480.33 483.403,479.997 485.5,479.5C 482.685,483.08 480.518,487.08 479,491.5C 476.138,507.928 481.304,521.095 494.5,531C 491.793,531.328 489.126,530.995 486.5,530C 477.534,525.537 471.201,518.703 467.5,509.5C 463.639,498.345 463.639,487.345 467.5,476.5 Z"/></g>
<g><path style="opacity:1" fill="#127185" d="M 503.5,525.5 C 504.139,515.773 503.472,506.44 501.5,497.5C 502.172,496.733 503.005,496.066 504,495.5C 504.825,505.675 504.658,515.675 503.5,525.5 Z"/></g>
<g><path style="opacity:1" fill="#0db7d5" d="M 804.5,527.5 C 806.048,527.821 806.715,528.821 806.5,530.5C 804.1,531.268 801.767,531.602 799.5,531.5C 798.638,533.879 798.305,536.546 798.5,539.5C 797.167,538.833 796.167,537.833 795.5,536.5C 794.311,535.571 792.978,535.238 791.5,535.5C 792.833,537.833 792.833,540.167 791.5,542.5C 789.413,544.02 786.413,545.02 782.5,545.5C 780.983,544.089 779.649,544.256 778.5,546C 780.167,546.333 781.833,546.667 783.5,547C 780.183,547.498 776.85,547.665 773.5,547.5C 768.733,547.364 764.733,545.697 761.5,542.5C 761.389,541.883 761.056,541.383 760.5,541C 761.833,540 763.167,539 764.5,538C 763.328,537.581 762.328,536.915 761.5,536C 762.878,534.287 764.545,532.953 766.5,532C 764.652,529.037 763.652,526.037 763.5,523C 765.074,522.301 766.407,522.635 767.5,524C 765.717,525.067 765.217,526.567 766,528.5C 766.667,525.833 767.333,525.833 768,528.5C 770.658,527.306 771.824,528.306 771.5,531.5C 774.5,531.833 775.833,530.5 775.5,527.5C 776.833,527.5 778.167,527.5 779.5,527.5C 779.682,522.206 780.182,522.206 781,527.5C 781.233,525.22 782.066,523.22 783.5,521.5C 783.291,520.914 782.957,520.414 782.5,520C 783.872,519.598 785.205,519.098 786.5,518.5C 787.315,520.276 788.482,520.943 790,520.5C 790.333,519.833 790.667,519.167 791,518.5C 793.344,520.003 795.677,520.669 798,520.5C 799.385,519.449 800.385,518.116 801,516.5C 801.94,518.821 803.44,520.988 805.5,523C 803.534,524.347 803.201,525.847 804.5,527.5 Z"/></g>
<g><path style="opacity:1" fill="#a6f3f8" d="M 218.5,504.5 C 218.634,506.292 218.301,507.958 217.5,509.5C 216.728,513.452 216.395,517.452 216.5,521.5C 214.886,515.601 215.552,509.935 218.5,504.5 Z"/></g>
<g><path style="opacity:1" fill="#07bad7" d="M 537.5,497.5 C 541.1,499.43 544.1,502.097 546.5,505.5C 546.869,507.441 547.536,509.275 548.5,511C 547.639,513.321 548.639,514.487 551.5,514.5C 551.701,521.168 552.034,527.835 552.5,534.5C 551.902,535.795 551.402,537.128 551,538.5C 550.026,536.122 549.359,536.456 549,539.5C 546.159,537.496 542.993,536.996 539.5,538C 538.416,540.825 537.249,540.992 536,538.5C 535.667,540.833 535.333,543.167 535,545.5C 533.575,529.189 533.241,512.856 534,496.5C 535.011,497.337 536.178,497.67 537.5,497.5 Z"/></g>
<g><path style="opacity:1" fill="#bdf6fb" d="M 216.5,522.5 C 217.407,524.657 218.073,526.99 218.5,529.5C 217.883,529.389 217.383,529.056 217,528.5C 216.505,526.527 216.338,524.527 216.5,522.5 Z"/></g>
<g><path style="opacity:1" fill="#15b4d1" d="M 274.5,507.5 C 275.222,507.918 275.722,508.584 276,509.5C 276.979,515.983 276.479,522.316 274.5,528.5C 274.624,529.107 274.957,529.44 275.5,529.5C 275.5,529.833 275.5,530.167 275.5,530.5C 272.865,536.134 268.865,540.467 263.5,543.5C 256.056,545.942 248.389,547.276 240.5,547.5C 229.86,545.525 222.526,539.525 218.5,529.5C 218.073,526.99 217.407,524.657 216.5,522.5C 216.5,522.167 216.5,521.833 216.5,521.5C 216.395,517.452 216.728,513.452 217.5,509.5C 218.309,511.292 218.809,513.292 219,515.5C 220.356,516.38 221.856,516.714 223.5,516.5C 223.5,515.167 223.5,513.833 223.5,512.5C 224.833,512.5 226.167,512.5 227.5,512.5C 227.491,514.308 227.991,515.975 229,517.5C 232.149,515.638 235.649,514.971 239.5,515.5C 239.33,516.822 239.663,517.989 240.5,519C 244.152,519.499 247.818,519.665 251.5,519.5C 251.596,515.689 252.262,515.689 253.5,519.5C 254.738,515.689 255.404,515.689 255.5,519.5C 256.833,519.5 258.167,519.5 259.5,519.5C 259.351,518.448 259.517,517.448 260,516.5C 262.228,518.113 264.728,518.78 267.5,518.5C 267.5,513.833 269.833,511.5 274.5,511.5C 274.5,510.167 274.5,508.833 274.5,507.5 Z"/></g>
<g><path style="opacity:1" fill="#143352" d="M 582.5,524.5 C 582.677,528.234 582.344,531.901 581.5,535.5C 579.424,535.878 577.591,537.211 576,539.5C 575.502,542.482 575.335,545.482 575.5,548.5C 575.167,549.833 574.833,551.167 574.5,552.5C 574.672,553.492 574.338,554.158 573.5,554.5C 572.094,554.973 571.427,555.973 571.5,557.5C 571.5,558.167 571.167,558.5 570.5,558.5C 569.094,558.973 568.427,559.973 568.5,561.5C 566.5,564.167 564.167,566.5 561.5,568.5C 560.167,569.167 559.167,570.167 558.5,571.5C 556.628,573.604 554.295,574.937 551.5,575.5C 550.768,572.932 550.768,570.266 551.5,567.5C 550.167,567.5 548.833,567.5 547.5,567.5C 547.187,564.753 547.52,562.086 548.5,559.5C 549.086,559.709 549.586,560.043 550,560.5C 550.495,562.473 550.662,564.473 550.5,566.5C 553.208,567.449 555.874,567.449 558.5,566.5C 561.68,560.577 561.013,555.244 556.5,550.5C 558.706,548.33 560.706,548.33 562.5,550.5C 562.809,545.59 564.476,541.256 567.5,537.5C 567.291,536.914 566.957,536.414 566.5,536C 569.167,535.667 571.833,535.333 574.5,535C 576.067,532.259 578.401,531.092 581.5,531.5C 581.198,528.941 581.532,526.607 582.5,524.5 Z"/></g>
<g><path style="opacity:1" fill="#4fc1d6" d="M 806.5,530.5 C 799.874,544.706 788.874,550.373 773.5,547.5C 776.85,547.665 780.183,547.498 783.5,547C 781.833,546.667 780.167,546.333 778.5,546C 779.649,544.256 780.983,544.089 782.5,545.5C 786.413,545.02 789.413,544.02 791.5,542.5C 792.833,540.167 792.833,537.833 791.5,535.5C 792.978,535.238 794.311,535.571 795.5,536.5C 796.167,537.833 797.167,538.833 798.5,539.5C 798.305,536.546 798.638,533.879 799.5,531.5C 801.767,531.602 804.1,531.268 806.5,530.5 Z"/></g>
<g><path style="opacity:1" fill="#26b6d0" d="M 531.5,494.5 C 533.75,495.13 535.75,496.13 537.5,497.5C 536.178,497.67 535.011,497.337 534,496.5C 533.241,512.856 533.575,529.189 535,545.5C 535.333,543.167 535.667,540.833 536,538.5C 537.249,540.992 538.416,540.825 539.5,538C 542.993,536.996 546.159,537.496 549,539.5C 549.359,536.456 550.026,536.122 551,538.5C 551.402,537.128 551.902,535.795 552.5,534.5C 552.034,527.835 551.701,521.168 551.5,514.5C 548.639,514.487 547.639,513.321 548.5,511C 547.536,509.275 546.869,507.441 546.5,505.5C 550.272,509.371 552.772,514.038 554,519.5C 557.641,540.147 550.474,555.48 532.5,565.5C 532.167,565.5 531.833,565.5 531.5,565.5C 531.5,541.833 531.5,518.167 531.5,494.5 Z"/></g>
<g><path style="opacity:1" fill="#2a4f67" d="M 581.5,535.5 C 580.935,539.537 579.601,543.203 577.5,546.5C 576.833,547.167 576.167,547.833 575.5,548.5C 575.335,545.482 575.502,542.482 576,539.5C 577.591,537.211 579.424,535.878 581.5,535.5 Z"/></g>
<g><path style="opacity:1" fill="#72828a" d="M 750.5,529.5 C 750.5,529.833 750.5,530.167 750.5,530.5C 732.833,530.5 715.167,530.5 697.5,530.5C 697.5,549.167 697.5,567.833 697.5,586.5C 696.503,567.674 696.17,548.674 696.5,529.5C 714.5,529.5 732.5,529.5 750.5,529.5 Z"/></g>
<g><path style="opacity:1" fill="#15b6d3" d="M 384.5,497.5 C 384.5,504.833 384.5,512.167 384.5,519.5C 385.833,519.5 387.167,519.5 388.5,519.5C 388.5,520.833 388.5,522.167 388.5,523.5C 389.5,523.5 390.5,523.5 391.5,523.5C 391.33,522.178 391.663,521.011 392.5,520C 394.764,519.764 396.931,519.264 399,518.5C 401.618,512.692 403.618,506.692 405,500.5C 405.383,499.944 405.883,499.611 406.5,499.5C 406.172,510.346 406.506,521.013 407.5,531.5C 410.631,549.408 417.297,565.741 427.5,580.5C 426.518,579.859 425.518,579.193 424.5,578.5C 423.264,579.246 421.93,579.579 420.5,579.5C 419.377,577.042 419.377,574.875 420.5,573C 419.789,571.745 418.956,570.579 418,569.5C 417.667,570.167 417.333,570.833 417,571.5C 416.798,569.744 416.298,568.078 415.5,566.5C 413.53,567.443 412.03,566.776 411,564.5C 410.517,565.448 410.351,566.448 410.5,567.5C 409.5,567.5 408.5,567.5 407.5,567.5C 407.343,568.873 407.51,570.207 408,571.5C 408.667,572.833 409.333,572.833 410,571.5C 412.498,574.101 411.998,575.435 408.5,575.5C 408.683,577.936 408.016,580.103 406.5,582C 407.844,584.144 407.51,585.977 405.5,587.5C 401.467,582.271 397.967,576.604 395,570.5C 384.367,547.085 380.867,522.751 384.5,497.5 Z"/></g>
<g><path style="opacity:1" fill="#8ad5e3" d="M 263.5,543.5 C 260.858,546.317 257.525,547.817 253.5,548C 248.98,548.814 244.646,548.647 240.5,547.5C 248.389,547.276 256.056,545.942 263.5,543.5 Z"/></g>
<g><path style="opacity:1" fill="#9bcada" d="M 577.5,546.5 C 577.539,549.089 576.539,551.089 574.5,552.5C 574.833,551.167 575.167,549.833 575.5,548.5C 576.167,547.833 576.833,547.167 577.5,546.5 Z"/></g>
<g><path style="opacity:0.4" fill="#b7e2ef" d="M 573.5,554.5 C 573.573,556.027 572.906,557.027 571.5,557.5C 571.427,555.973 572.094,554.973 573.5,554.5 Z"/></g>
<g><path style="opacity:0.267" fill="#addce7" d="M 570.5,558.5 C 570.573,560.027 569.906,561.027 568.5,561.5C 568.427,559.973 569.094,558.973 570.5,558.5 Z"/></g>
<g><path style="opacity:1" fill="#556671" d="M 517.5,491.5 C 520.059,491.198 522.393,491.532 524.5,492.5C 522.5,492.5 520.5,492.5 518.5,492.5C 518.832,530.004 518.498,567.337 517.5,604.5C 517.5,566.833 517.5,529.167 517.5,491.5 Z"/></g>
<g><path style="opacity:1" fill="#11afcf" d="M 427.5,580.5 C 428.5,580.833 429.167,581.5 429.5,582.5C 430.031,584.544 431.198,586.211 433,587.5C 433.172,594.346 433.672,601.013 434.5,607.5C 436.233,613.355 438.567,619.022 441.5,624.5C 429.586,616.421 419.086,606.754 410,595.5C 408.223,592.941 406.723,590.274 405.5,587.5C 407.51,585.977 407.844,584.144 406.5,582C 408.016,580.103 408.683,577.936 408.5,575.5C 411.998,575.435 412.498,574.101 410,571.5C 409.333,572.833 408.667,572.833 408,571.5C 407.51,570.207 407.343,568.873 407.5,567.5C 408.5,567.5 409.5,567.5 410.5,567.5C 410.351,566.448 410.517,565.448 411,564.5C 412.03,566.776 413.53,567.443 415.5,566.5C 416.298,568.078 416.798,569.744 417,571.5C 417.333,570.833 417.667,570.167 418,569.5C 418.956,570.579 419.789,571.745 420.5,573C 419.377,574.875 419.377,577.042 420.5,579.5C 421.93,579.579 423.264,579.246 424.5,578.5C 425.518,579.193 426.518,579.859 427.5,580.5 Z"/></g>
<g><path style="opacity:1" fill="#576b77" d="M 492.5,553.5 C 496.5,553.5 500.5,553.5 504.5,553.5C 504.832,562.525 504.498,571.525 503.5,580.5C 502.893,580.376 502.56,580.043 502.5,579.5C 503.493,571.35 503.826,563.017 503.5,554.5C 499.629,554.815 495.962,554.482 492.5,553.5 Z"/></g>
<g><path style="opacity:0.533" fill="#cbeef9" d="M 561.5,568.5 C 561.315,570.196 560.481,571.529 559,572.5C 558.601,572.272 558.435,571.938 558.5,571.5C 559.167,570.167 560.167,569.167 561.5,568.5 Z"/></g>
<g><path style="opacity:1" fill="#142b41" d="M 498.5,577.5 C 491.653,575.447 484.653,574.114 477.5,573.5C 476.5,573.833 475.833,574.5 475.5,575.5C 476.562,578.103 476.728,580.77 476,583.5C 474.644,584.38 473.144,584.714 471.5,584.5C 471.5,586.5 471.5,588.5 471.5,590.5C 476.833,590.833 482.167,591.167 487.5,591.5C 487.5,594.167 487.5,596.833 487.5,599.5C 485.167,599.5 482.833,599.5 480.5,599.5C 479.695,609.812 479.362,620.146 479.5,630.5C 482.187,630.336 484.854,630.503 487.5,631C 486.944,631.383 486.611,631.883 486.5,632.5C 472.682,634.833 461.182,630.499 452,619.5C 441.529,598.916 446.696,583.416 467.5,573C 478.659,569.882 488.993,571.382 498.5,577.5 Z"/></g>
<g><path style="opacity:1" fill="#9aafbb" d="M 531.5,565.5 C 531.833,565.5 532.167,565.5 532.5,565.5C 532.5,570.5 532.5,575.5 532.5,580.5C 534.167,580.5 535.833,580.5 537.5,580.5C 535.735,581.461 533.735,581.795 531.5,581.5C 531.5,576.167 531.5,570.833 531.5,565.5 Z"/></g>
<g><path style="opacity:1" fill="#9fa8af" d="M 275.5,530.5 C 275.5,530.167 275.5,529.833 275.5,529.5C 292.833,529.5 310.167,529.5 327.5,529.5C 327.83,548.674 327.497,567.674 326.5,586.5C 326.5,567.833 326.5,549.167 326.5,530.5C 309.5,530.5 292.5,530.5 275.5,530.5 Z"/></g>
<g><path style="opacity:1" fill="#34434d" d="M 273.5,584.5 C 274.289,584.783 274.956,585.283 275.5,586C 292.163,586.5 308.83,586.667 325.5,586.5C 308.672,587.662 291.672,587.828 274.5,587C 273.748,586.329 273.414,585.496 273.5,584.5 Z"/></g>
<g><path style="opacity:1" fill="#8cd7e4" d="M 429.5,582.5 C 432.527,584.529 434.86,587.196 436.5,590.5C 434.789,596.024 434.122,601.69 434.5,607.5C 433.672,601.013 433.172,594.346 433,587.5C 431.198,586.211 430.031,584.544 429.5,582.5 Z"/></g>
<g><path style="opacity:1" fill="#abb8be" d="M 277.5,612.5 C 293.992,611.503 310.658,611.17 327.5,611.5C 327.5,631.167 327.5,650.833 327.5,670.5C 326.503,651.341 326.17,632.007 326.5,612.5C 310.167,612.5 293.833,612.5 277.5,612.5 Z"/></g>
<g><path style="opacity:1" fill="#0e2946" d="M 463.5,774.5 C 455.35,775.493 447.017,775.826 438.5,775.5C 439.479,763.247 439.813,750.913 439.5,738.5C 440.329,731.011 440.829,723.344 441,715.5C 441.34,719.558 442.007,723.558 443,727.5C 443.49,726.207 443.657,724.873 443.5,723.5C 445.201,723.966 446.701,723.966 448,723.5C 448.5,729.825 448.666,736.158 448.5,742.5C 450.833,742.5 453.167,742.5 455.5,742.5C 455.45,738.812 455.116,735.145 454.5,731.5C 454.69,728.672 455.357,726.006 456.5,723.5C 454.666,716.711 453.999,709.711 454.5,702.5C 457.044,702.896 459.211,702.229 461,700.5C 461.333,724.167 461.667,747.833 462,771.5C 462.232,772.737 462.732,773.737 463.5,774.5 Z"/></g>
<g><path style="opacity:1" fill="#020d1f" d="M 525.5,702.5 C 524.833,730.5 524.167,758.5 523.5,786.5C 523.333,758.165 523.5,729.831 524,701.5C 536.091,700.346 548.258,700.179 560.5,701C 548.659,701.169 536.993,701.669 525.5,702.5 Z"/></g>
<g><path style="opacity:1" fill="#162536" d="M 500.5,785.5 C 499.883,785.611 499.383,785.944 499,786.5C 498.503,784.19 498.337,781.857 498.5,779.5C 497.42,753.837 497.42,728.171 498.5,702.5C 498.81,701.262 499.31,701.262 500,702.5C 500.5,730.165 500.667,757.831 500.5,785.5 Z"/></g>
<g><path style="opacity:1" fill="#415461" d="M 559.5,702.5 C 560.661,716.327 560.827,730.327 560,744.5C 559.329,745.252 558.496,745.586 557.5,745.5C 557.783,744.711 558.283,744.044 559,743.5C 559.5,729.837 559.667,716.171 559.5,702.5 Z"/></g>
<g><path style="opacity:1" fill="#1d344d" d="M 633.5,753.5 C 644.002,755.176 647.169,760.842 643,770.5C 637.708,775.82 632.374,775.82 627,770.5C 623.171,762.482 625.338,756.816 633.5,753.5 Z"/></g>
<g><path style="opacity:1" fill="#98e8f5" d="M 436.5,775.5 C 431.36,776.488 426.026,776.821 420.5,776.5C 420.629,778.216 420.962,779.883 421.5,781.5C 419.72,780.01 419.054,778.01 419.5,775.5C 425.439,774.847 431.106,774.847 436.5,775.5 Z"/></g>
<g><path style="opacity:1" fill="#99e3f2" d="M 473.5,783.5 C 474.219,781.236 474.552,778.903 474.5,776.5C 470.958,776.813 467.625,776.479 464.5,775.5C 468.36,774.968 472.36,775.135 476.5,776C 476.165,777.867 475.665,780.034 475,782.5C 474.617,783.056 474.117,783.389 473.5,783.5 Z"/></g>
<g><path style="opacity:1" fill="#97d4e0" d="M 717.5,777.5 C 716.167,777.5 714.833,777.5 713.5,777.5C 707.5,777.5 701.5,777.5 695.5,777.5C 698.36,776.756 701.36,776.089 704.5,775.5C 708.058,775.616 711.725,775.782 715.5,776C 716.416,776.278 717.082,776.778 717.5,777.5 Z"/></g>
<g><path style="opacity:1" fill="#232e3e" d="M 391.5,777.5 C 381.5,778.833 371.5,778.833 361.5,777.5C 371.598,776.183 381.598,776.183 391.5,777.5 Z"/></g>
<g><path style="opacity:1" fill="#129bc2" d="M 695.5,777.5 C 701.5,777.5 707.5,777.5 713.5,777.5C 719.77,780.168 721.77,784.834 719.5,791.5C 718.5,791.5 717.5,791.5 716.5,791.5C 716.5,792.5 716.5,793.5 716.5,794.5C 713.287,794.19 710.287,794.523 707.5,795.5C 703.486,795.666 699.486,795.499 695.5,795C 693.598,793.27 691.931,791.437 690.5,789.5C 688.277,783.941 689.943,779.941 695.5,777.5 Z"/></g>
<g><path style="opacity:1" fill="#183046" d="M 361.5,777.5 C 371.5,778.833 381.5,778.833 391.5,777.5C 396.189,778.53 398.855,781.53 399.5,786.5C 398.818,791.348 396.151,794.515 391.5,796C 382.5,796.667 373.5,796.667 364.5,796C 356.552,794.071 353.719,789.237 356,781.5C 357.451,779.536 359.284,778.203 361.5,777.5 Z"/></g>
<g><path style="opacity:1" fill="#5db4ca" d="M 713.5,777.5 C 714.833,777.5 716.167,777.5 717.5,777.5C 719.017,777.511 720.184,778.177 721,779.5C 723.298,784.427 722.964,789.094 720,793.5C 718.67,794.582 717.17,795.249 715.5,795.5C 712.833,795.5 710.167,795.5 707.5,795.5C 710.287,794.523 713.287,794.19 716.5,794.5C 716.5,793.5 716.5,792.5 716.5,791.5C 717.5,791.5 718.5,791.5 719.5,791.5C 721.77,784.834 719.77,780.168 713.5,777.5 Z"/></g>
<g><path style="opacity:1" fill="#33b3d1" d="M 525.5,702.5 C 525.333,730.502 525.5,758.502 526,786.5C 531.458,789.288 535.292,793.122 537.5,798C 539.607,799.264 540.607,801.097 540.5,803.5C 540.517,805.565 540.85,807.565 541.5,809.5C 539.265,808.772 537.432,807.439 536,805.5C 535.009,806.939 533.676,807.939 532,808.5C 531.469,803.55 529.636,802.716 526.5,806C 526.833,806.333 527.167,806.667 527.5,807C 525.782,807.346 524.115,807.846 522.5,808.5C 518.5,807.167 514.5,807.167 510.5,808.5C 508.548,806.905 506.548,806.405 504.5,807C 506.838,805.492 507.838,803.325 507.5,800.5C 503.677,802.071 499.677,803.071 495.5,803.5C 495.5,804.833 495.5,806.167 495.5,807.5C 493.425,807.698 491.425,807.865 489.5,808C 488.35,805.538 487.017,803.204 485.5,801C 486.945,799.29 487.778,797.456 488,795.5C 487.292,796.381 486.458,797.047 485.5,797.5C 488.096,792.904 491.763,789.237 496.5,786.5C 497.168,784.031 497.835,781.698 498.5,779.5C 498.337,781.857 498.503,784.19 499,786.5C 499.383,785.944 499.883,785.611 500.5,785.5C 508.3,783.884 515.967,784.218 523.5,786.5C 524.167,758.5 524.833,730.5 525.5,702.5 Z"/></g>
<g><path style="opacity:1" fill="#40a9c3" d="M 436.5,702.5 C 436.833,702.5 437.167,702.5 437.5,702.5C 437.169,727.006 437.502,751.339 438.5,775.5C 447.017,775.826 455.35,775.493 463.5,774.5C 463.169,750.328 463.502,726.328 464.5,702.5C 464.5,726.833 464.5,751.167 464.5,775.5C 467.625,776.479 470.958,776.813 474.5,776.5C 474.552,778.903 474.219,781.236 473.5,783.5C 471.167,790.5 466.5,795.167 459.5,797.5C 452.289,799.822 444.956,800.155 437.5,798.5C 429.443,795.442 424.11,789.775 421.5,781.5C 420.962,779.883 420.629,778.216 420.5,776.5C 426.026,776.821 431.36,776.488 436.5,775.5C 436.5,751.167 436.5,726.833 436.5,702.5 Z"/></g>
<g><path style="opacity:1" fill="#030e1a" d="M 437.5,702.5 C 439.479,714.12 440.146,726.12 439.5,738.5C 439.813,750.913 439.479,763.247 438.5,775.5C 437.502,751.339 437.169,727.006 437.5,702.5 Z"/></g>
<g><path style="opacity:1" fill="#bbeef8" d="M 690.5,789.5 C 691.931,791.437 693.598,793.27 695.5,795C 699.486,795.499 703.486,795.666 707.5,795.5C 710.167,795.5 712.833,795.5 715.5,795.5C 708.679,796.655 701.679,796.821 694.5,796C 692.077,794.429 690.744,792.263 690.5,789.5 Z"/></g>
<g><path style="opacity:1" fill="#9cdde7" d="M 459.5,797.5 C 452.419,802.454 445.086,802.787 437.5,798.5C 444.956,800.155 452.289,799.822 459.5,797.5 Z"/></g>
<g><path style="opacity:1" fill="#95d7e2" d="M 482.5,803.5 C 481.577,810.109 481.244,816.776 481.5,823.5C 480.313,821.26 479.646,818.76 479.5,816C 480.041,812.172 480.541,808.339 481,804.5C 481.383,803.944 481.883,803.611 482.5,803.5 Z"/></g>
<g><path style="opacity:1" fill="#a7e4f0" d="M 540.5,803.5 C 541.942,805.54 542.942,807.873 543.5,810.5C 542.61,811.711 542.61,813.045 543.5,814.5C 542.861,817.475 542.361,820.475 542,823.5C 541.284,825.879 540.117,827.879 538.5,829.5C 541.036,823.094 542.036,816.427 541.5,809.5C 540.85,807.565 540.517,805.565 540.5,803.5 Z"/></g>
<g><path style="opacity:1" fill="#0ca6c8" d="M 541.5,809.5 C 542.036,816.427 541.036,823.094 538.5,829.5C 536.522,834.811 532.855,838.478 527.5,840.5C 526.662,840.842 526.328,841.508 526.5,842.5C 525.735,842.077 524.902,841.743 524,841.5C 515.155,845.46 506.322,845.46 497.5,841.5C 497.158,840.662 496.492,840.328 495.5,840.5C 490.17,838.504 486.504,834.837 484.5,829.5C 483.486,827.426 482.486,825.426 481.5,823.5C 481.244,816.776 481.577,810.109 482.5,803.5C 482.461,800.911 483.461,798.911 485.5,797.5C 486.458,797.047 487.292,796.381 488,795.5C 487.778,797.456 486.945,799.29 485.5,801C 487.017,803.204 488.35,805.538 489.5,808C 491.425,807.865 493.425,807.698 495.5,807.5C 495.5,806.167 495.5,804.833 495.5,803.5C 499.677,803.071 503.677,802.071 507.5,800.5C 507.838,803.325 506.838,805.492 504.5,807C 506.548,806.405 508.548,806.905 510.5,808.5C 514.5,807.167 518.5,807.167 522.5,808.5C 524.115,807.846 525.782,807.346 527.5,807C 527.167,806.667 526.833,806.333 526.5,806C 529.636,802.716 531.469,803.55 532,808.5C 533.676,807.939 535.009,806.939 536,805.5C 537.432,807.439 539.265,808.772 541.5,809.5 Z"/></g>
<g><path style="opacity:1" fill="#bff4f7" d="M 481.5,823.5 C 482.486,825.426 483.486,827.426 484.5,829.5C 482.031,828.393 481.031,826.393 481.5,823.5 Z"/></g>
<g><path style="opacity:1" fill="#a9c0c9" d="M 495.5,840.5 C 496.492,840.328 497.158,840.662 497.5,841.5C 497.5,842.167 497.167,842.5 496.5,842.5C 455.833,842.5 415.167,842.5 374.5,842.5C 414.833,841.833 455.167,841.167 495.5,840.5 Z"/></g>
<g><path style="opacity:1" fill="#b0c5cf" d="M 527.5,840.5 C 569.167,841.167 610.833,841.833 652.5,842.5C 610.5,842.5 568.5,842.5 526.5,842.5C 526.328,841.508 526.662,840.842 527.5,840.5 Z"/></g>
<g><path style="opacity:1" fill="#11263e" d="M 497.5,841.5 C 506.322,845.46 515.155,845.46 524,841.5C 524.902,841.743 525.735,842.077 526.5,842.5C 568.5,842.5 610.5,842.5 652.5,842.5C 657.681,842.85 660.348,845.683 660.5,851C 660.438,855.997 658.104,859.164 653.5,860.5C 560.833,860.667 468.166,860.5 375.5,860C 377.962,858.784 380.629,858.118 383.5,858C 380.167,857.667 376.833,857.333 373.5,857C 373.833,856.667 374.167,856.333 374.5,856C 395.687,855.49 416.853,855.99 438,857.5C 440.167,857.333 442.333,857.167 444.5,857C 443.167,856.667 441.833,856.333 440.5,856C 457.175,855.645 473.842,855.145 490.5,854.5C 490.665,852.173 491.331,850.007 492.5,848C 491.833,847.333 491.167,846.667 490.5,846C 492.727,845.059 494.727,843.892 496.5,842.5C 497.167,842.5 497.5,842.167 497.5,841.5 Z"/></g>
<g><path style="opacity:1" fill="#1d3247" d="M 706.5,841.5 C 716.116,840.028 720.95,844.028 721,853.5C 718.299,861.131 713.132,863.631 705.5,861C 697.597,854.167 697.93,847.667 706.5,841.5 Z"/></g>
<g><path style="opacity:1" fill="#1c3049" d="M 308.5,841.5 C 320.233,840.391 325.066,845.391 323,856.5C 317.095,864.054 310.762,864.387 304,857.5C 301.159,850.871 302.659,845.538 308.5,841.5 Z"/></g>
<g><path style="opacity:1" fill="#23364c" d="M 374.5,842.5 C 415.167,842.5 455.833,842.5 496.5,842.5C 494.727,843.892 492.727,845.059 490.5,846C 491.167,846.667 491.833,847.333 492.5,848C 491.331,850.007 490.665,852.173 490.5,854.5C 473.842,855.145 457.175,855.645 440.5,856C 441.833,856.333 443.167,856.667 444.5,857C 442.333,857.167 440.167,857.333 438,857.5C 416.853,855.99 395.687,855.49 374.5,856C 374.167,856.333 373.833,856.667 373.5,857C 376.833,857.333 380.167,857.667 383.5,858C 380.629,858.118 377.962,858.784 375.5,860C 468.166,860.5 560.833,860.667 653.5,860.5C 560.668,861.666 467.668,861.832 374.5,861C 364.467,856.871 363.134,850.871 370.5,843C 371.793,842.51 373.127,842.343 374.5,842.5 Z"/></g>
</svg>
